<?xml version="1.0" encoding="UTF-8" standalone="no"?>
<svg
   viewBox="0 0 65 65"
   width="65"
   height="65"
   version="1.1"
   id="svg5"
   sodipodi:docname="discord.svg"
   inkscape:version="1.4 (86a8ad7, 2024-10-11)"
   xmlns:inkscape="http://www.inkscape.org/namespaces/inkscape"
   xmlns:sodipodi="http://sodipodi.sourceforge.net/DTD/sodipodi-0.dtd"
   xmlns="http://www.w3.org/2000/svg"
   xmlns:svg="http://www.w3.org/2000/svg">
  <defs
     id="defs5" />
  <sodipodi:namedview
     id="namedview5"
     pagecolor="#ffffff"
     bordercolor="#999999"
     borderopacity="1"
     inkscape:showpageshadow="2"
     inkscape:pageopacity="0"
     inkscape:pagecheckerboard="0"
     inkscape:deskcolor="#d1d1d1"
     inkscape:zoom="5.4659354"
     inkscape:cx="85.621209"
     inkscape:cy="47.475863"
     inkscape:window-width="1920"
     inkscape:window-height="991"
     inkscape:window-x="-9"
     inkscape:window-y="-9"
     inkscape:window-maximized="1"
     inkscape:current-layer="svg5" />
  <path
     fill="#78a2d2"
     d="M 52,0 H 13 C 5.82,0 0,5.82 0,13 v 39 c 0,7.18 5.82,13 13,13 h 39 c 7.18,0 13,-5.82 13,-13 V 13 C 65,5.82 59.18,0 52,0 Z"
     id="path1" />
  <path
     fill="#1f212b"
     d="M 52,0 H 13 C 5.82,0 0,5.82 0,13 v 39 c 0,7.18 5.82,13 13,13 h 39 c 7.18,0 13,-5.82 13,-13 V 13 C 65,5.82 59.18,0 52,0 Z m 0,63 H 13 C 6.925,63 2,58.075 2,52 V 13 C 2,6.925 6.925,2 13,2 h 39 c 6.075,0 11,4.925 11,11 v 39 c 0,6.075 -4.925,11 -11,11 z"
     id="path2" />
  <path
     fill="#1f212b"
     d="M 59.5,30 C 59.224,30 59,30.224 59,30.5 V 49.163 C 59,54.596 54.596,59 49.163,59 H 15.837 C 10.404,59 6,54.596 6,49.163 V 15.837 C 6,10.404 10.404,6 15.837,6 H 49.5 C 49.776,6 50,5.776 50,5.5 50,5.224 49.776,5 49.5,5 H 15.837 C 9.852,5 5,9.8520003 5,15.837 V 49.163 C 5,55.148 9.852,60 15.837,60 H 49.163 C 55.148,60 60,55.148 60,49.163 V 30.5 C 60,30.224 59.776,30 59.5,30 Z m 0,-7.079 c -0.276,0 -0.5,0.224 -0.5,0.5 v 4 c 0,0.276 0.224,0.5 0.5,0.5 0.276,0 0.5,-0.224 0.5,-0.5 v -4 c 0,-0.276 -0.224,-0.5 -0.5,-0.5 z m -0.5,-3.5 v 2 c 0,0.276 0.224,0.5 0.5,0.5 0.276,0 0.5,-0.224 0.5,-0.5 v -2 c 0,-0.276 -0.224,-0.5 -0.5,-0.5 -0.276,0 -0.5,0.224 -0.5,0.5 z"
     id="path3" />
  <path
     fill="#fdfcee"
     d="m 46.145,18.992 c -2.638,-1.223 -5.459,-2.111 -8.407,-2.617 -0.362,0.649 -0.785,1.521 -1.077,2.215 -3.135,-0.467 -6.241,-0.467 -9.318,0 -0.292,-0.694 -0.724,-1.566 -1.09,-2.215 -2.952,0.506 -5.776,1.398 -8.414,2.624 -5.321,7.965 -6.763,15.732 -6.042,23.389 3.529,2.611 6.949,4.197 10.311,5.234 0.83,-1.132 1.264,-1.886 1.902,-3.154 -1.215,-0.457 -2.378,-1.022 -3.478,-1.677 0.292,-0.214 1.112,-1.141 1.387,-1.371 6.705,3.107 13.497,3.107 20.122,0 0.279,0.23 1.223,1.1 1.511,1.314 -1.103,0.658 -2.269,1.223 -3.484,1.68 0.638,1.265 0.983,2.079 1.816,3.211 3.366,-1.038 6.789,-2.624 10.318,-5.238 0.847,-8.876 -1.445,-16.571 -6.057,-23.395 z M 25.23,37.679 c -2.013,0 -3.664,-1.862 -3.664,-4.128 0,-2.266 1.615,-4.132 3.664,-4.132 2.048,0 3.699,1.861 3.664,4.132 0.003,2.266 -1.615,4.128 -3.664,4.128 z m 13.539,0 c -2.013,0 -3.664,-1.862 -3.664,-4.128 0,-2.266 1.615,-4.132 3.664,-4.132 2.048,0 3.699,1.861 3.664,4.132 0,2.266 -1.615,4.128 -3.664,4.128 z"
     id="path4" />
  <path
     fill="#1f212b"
     d="m 41.885,48.125 c -0.156,0 -0.307,-0.073 -0.402,-0.204 -0.714,-0.969 -1.082,-1.714 -1.549,-2.658 L 39.623,44.64 c -0.064,-0.127 -0.071,-0.275 -0.02,-0.407 0.051,-0.132 0.157,-0.236 0.29,-0.286 0.956,-0.36 1.893,-0.793 2.793,-1.291 -0.134,-0.117 -0.274,-0.243 -0.409,-0.363 -0.114,-0.102 -0.224,-0.199 -0.318,-0.283 -6.579,2.994 -13.284,2.997 -19.939,0.006 -0.099,0.101 -0.214,0.222 -0.332,0.345 -0.118,0.123 -0.225,0.234 -0.322,0.334 0.912,0.506 1.859,0.944 2.821,1.307 0.133,0.05 0.238,0.153 0.29,0.286 0.052,0.132 0.045,0.279 -0.02,0.406 -0.619,1.232 -1.068,2.029 -1.945,3.226 -0.126,0.171 -0.347,0.247 -0.551,0.182 -3.791,-1.17 -7.213,-2.907 -10.461,-5.31 -0.114,-0.085 -0.188,-0.214 -0.201,-0.355 -0.808,-8.579 1.196,-16.335 6.124,-23.713 0.051,-0.076 0.122,-0.138 0.205,-0.176 2.712,-1.261 5.585,-2.157 8.541,-2.664 0.202,-0.033 0.416,0.063 0.52,0.248 0.323,0.573 0.682,1.288 0.96,1.91 2.867,-0.399 5.789,-0.4 8.705,10e-4 0.286,-0.645 0.641,-1.361 0.947,-1.91 0.104,-0.186 0.318,-0.282 0.521,-0.249 2.951,0.507 5.822,1.4 8.532,2.656 0.083,0.039 0.153,0.099 0.204,0.174 4.956,7.331 6.965,15.091 6.143,23.724 -0.014,0.141 -0.087,0.27 -0.2,0.354 -3.247,2.404 -6.672,4.143 -10.469,5.313 -0.049,0.013 -0.098,0.02 -0.147,0.02 z m -1.124,-3.444 0.069,0.139 c 0.411,0.832 0.721,1.459 1.25,2.22 3.481,-1.112 6.643,-2.726 9.646,-4.921 0.74,-8.258 -1.196,-15.696 -5.918,-22.73 -2.484,-1.14 -5.107,-1.965 -7.803,-2.458 -0.307,0.577 -0.639,1.271 -0.884,1.854 -0.089,0.211 -0.308,0.339 -0.534,0.3 -3.073,-0.458 -6.158,-0.456 -9.169,0 -0.229,0.039 -0.447,-0.089 -0.536,-0.3 -0.235,-0.559 -0.572,-1.255 -0.895,-1.854 -2.698,0.492 -5.324,1.32 -7.811,2.464 -4.696,7.08 -6.628,14.518 -5.902,22.725 3.005,2.194 6.164,3.807 9.641,4.919 0.594,-0.833 0.966,-1.466 1.399,-2.305 -1.041,-0.423 -2.061,-0.93 -3.037,-1.512 -0.145,-0.086 -0.235,-0.238 -0.243,-0.405 -0.009,-0.168 0.068,-0.328 0.203,-0.428 0.127,-0.093 0.475,-0.455 0.729,-0.72 0.258,-0.27 0.503,-0.522 0.633,-0.632 0.147,-0.124 0.354,-0.15 0.531,-0.07 6.575,3.048 13.203,3.049 19.7,0.001 0.174,-0.081 0.38,-0.056 0.53,0.067 0.114,0.095 0.337,0.293 0.583,0.512 0.347,0.31 0.741,0.663 0.908,0.788 0.134,0.1 0.209,0.26 0.2,0.426 -0.008,0.167 -0.1,0.318 -0.243,0.404 -0.975,0.581 -1.998,1.091 -3.047,1.516 z M 38.77,38.179 c -2.296,0 -4.164,-2.076 -4.164,-4.629 0,-2.554 1.868,-4.631 4.164,-4.631 1.054,0 2.06,0.432 2.831,1.216 0.867,0.881 1.353,2.128 1.333,3.423 0,2.545 -1.869,4.621 -4.164,4.621 z m 0,-8.26 c -1.745,0 -3.164,1.629 -3.164,3.631 0,2.001 1.419,3.629 3.164,3.629 1.745,0 3.164,-1.628 3.164,-3.629 0.016,-1.036 -0.365,-2.022 -1.046,-2.714 -0.582,-0.591 -1.334,-0.917 -2.118,-0.917 z m -13.54,8.26 c -2.296,0 -4.164,-2.076 -4.164,-4.629 0,-2.554 1.868,-4.631 4.164,-4.631 1.054,0 2.06,0.432 2.831,1.216 0.867,0.881 1.353,2.129 1.332,3.423 0.002,1.304 -0.498,2.56 -1.373,3.436 -0.762,0.764 -1.753,1.185 -2.79,1.185 z m 0,-8.26 c -1.745,0 -3.164,1.629 -3.164,3.631 0,2.001 1.419,3.629 3.164,3.629 0.769,0 1.509,-0.316 2.082,-0.892 0.689,-0.69 1.083,-1.688 1.081,-2.736 0.017,-1.037 -0.364,-2.023 -1.044,-2.715 -0.582,-0.591 -1.334,-0.917 -2.119,-0.917 z"
     id="path5" />
</svg>
