<?xml version="1.0" encoding="UTF-8" standalone="no"?>

<svg
   width="210mm"
   height="32mm"
   viewBox="0 0 210 32"
   version="1.1"
   id="svg1"
   xml:space="preserve"
   inkscape:version="1.4 (86a8ad7, 2024-10-11)"
   sodipodi:docname="nordlogo.svg"
   xmlns:inkscape="http://www.inkscape.org/namespaces/inkscape"
   xmlns:sodipodi="http://sodipodi.sourceforge.net/DTD/sodipodi-0.dtd"
   xmlns="http://www.w3.org/2000/svg"
   xmlns:svg="http://www.w3.org/2000/svg"><sodipodi:namedview
     id="namedview1"
     pagecolor="#ffffff"
     bordercolor="#999999"
     borderopacity="1"
     inkscape:showpageshadow="2"
     inkscape:pageopacity="0"
     inkscape:pagecheckerboard="0"
     inkscape:deskcolor="#d1d1d1"
     inkscape:document-units="mm"
     inkscape:zoom="0.97386896"
     inkscape:cx="360.4181"
     inkscape:cy="126.81378"
     inkscape:window-width="1920"
     inkscape:window-height="991"
     inkscape:window-x="-9"
     inkscape:window-y="-9"
     inkscape:window-maximized="1"
     inkscape:current-layer="layer1"
     inkscape:export-bgcolor="#ffffff00" /><defs
     id="defs1" /><g
     inkscape:label="Слой 1"
     inkscape:groupmode="layer"
     id="layer1"><rect
       style="fill:#af0000;fill-opacity:1;stroke:none;stroke-width:1.0811;stroke-dasharray:none"
       id="rect3"
       width="212.72754"
       height="31.51519"
       x="-1.6300961"
       y="0.27167988"
       rx="2.8334572e-17" /><text
       xml:space="preserve"
       style="font-style:normal;font-variant:normal;font-weight:normal;font-stretch:normal;font-size:28.8099px;font-family:Algerian;-inkscape-font-specification:'Algerian, Normal';font-variant-ligatures:normal;font-variant-caps:normal;font-variant-numeric:normal;font-variant-east-asian:normal;text-align:start;writing-mode:lr-tb;direction:ltr;text-anchor:start;fill:#ffffff;fill-opacity:1;stroke:#000000;stroke-width:0.620241;stroke-dasharray:none"
       x="46.282047"
       y="20.93659"
       id="text1"
       transform="scale(0.69562339,1.4375595)"><tspan
         sodipodi:role="line"
         id="tspan1"
         style="font-style:normal;font-variant:normal;font-weight:normal;font-stretch:normal;font-size:28.8099px;font-family:Algerian;-inkscape-font-specification:'Algerian, Normal';font-variant-ligatures:normal;font-variant-caps:normal;font-variant-numeric:normal;font-variant-east-asian:normal;fill:#ffffff;fill-opacity:1;stroke-width:0.620241;stroke-dasharray:none"
         x="46.282047"
         y="20.93659">Northside fan</tspan></text><path
       fill="#000000"
       d="m 18.477257,2.4866201 c -3.92736,0.0245 -8.3609,0.927292 -12.6838701,2.074222 -0.21374,2.15229 0.13704,4.35168 0.86374,6.5837899 C 11.369787,5.6777821 24.450427,3.7130121 30.180107,8.9658321 c -1.88999,-4.89657 -6.32093,-6.512812 -11.70291,-6.479212 z m -14.2192501,2.275552 -2.3239504,0.60388 c 0.3474,4.9273899 1.7573804,8.3611199 3.7208804,11.0184499 -1.01826,0.65352 -2.50519,1.24243 -4.2344434,1.69523 0.348693,0.41662 0.877273,1.02183 1.8795234,1.17025 1.5296,-0.27345 2.45711,-0.94617 3.30902,-1.67946 4.6935801,5.37724 11.7105601,7.51246 15.5832501,14.16034 l 3.04344,-0.008 C 18.130717,18.269392 5.2033069,23.920892 4.2580669,4.7621721 Z"
       id="path1"
       style="fill:#ffffff;fill-opacity:1;stroke:#000000;stroke-width:1;stroke-dasharray:none;stroke-opacity:1" /><path
       fill="#000000"
       d="m 192.16223,2.7583031 c 3.92736,0.0245 8.3609,0.927289 12.68387,2.074219 0.21374,2.15229 -0.13704,4.35168 -0.86374,6.5837899 -4.71266,-5.4668499 -17.7933,-7.4316199 -23.52298,-2.1787999 1.88999,-4.89657 6.32093,-6.512809 11.70291,-6.479209 z m 14.21925,2.275549 2.32395,0.60388 c -0.3474,4.9273899 -1.75738,8.3611199 -3.72088,11.0184499 1.01826,0.65352 2.50519,1.24243 4.23445,1.69523 -0.3487,0.41662 -0.87728,1.02183 -1.87953,1.17025 -1.5296,-0.27345 -2.45711,-0.94617 -3.30902,-1.67946 -4.69358,5.37724 -11.71056,7.51246 -15.58325,14.16034 l -3.04344,-0.008 c 7.10501,-13.45347 20.03242,-7.80197 20.97766,-26.9606899 z"
       id="path37"
       style="fill:#ffffff;fill-opacity:1;stroke:#000000;stroke-width:1;stroke-dasharray:none;stroke-opacity:1" /></g></svg>
