<?xml version="1.0" encoding="UTF-8" standalone="no"?>
<!-- Uploaded to: SVG Repo, www.svgrepo.com, Generator: SVG Repo Mixer Tools -->

<svg
   width="800px"
   height="800px"
   viewBox="0 0 24 24"
   fill="none"
   version="1.1"
   id="svg1"
   sodipodi:docname="shield.svg"
   inkscape:version="1.4 (86a8ad7, 2024-10-11)"
   xmlns:inkscape="http://www.inkscape.org/namespaces/inkscape"
   xmlns:sodipodi="http://sodipodi.sourceforge.net/DTD/sodipodi-0.dtd"
   xmlns="http://www.w3.org/2000/svg"
   xmlns:svg="http://www.w3.org/2000/svg">
  <defs
     id="defs1" />
  <sodipodi:namedview
     id="namedview1"
     pagecolor="#ffffff"
     bordercolor="#999999"
     borderopacity="1"
     inkscape:showpageshadow="2"
     inkscape:pageopacity="0"
     inkscape:pagecheckerboard="0"
     inkscape:deskcolor="#d1d1d1"
     inkscape:zoom="0.96625"
     inkscape:cx="399.48254"
     inkscape:cy="384.47607"
     inkscape:window-width="1920"
     inkscape:window-height="991"
     inkscape:window-x="-9"
     inkscape:window-y="-9"
     inkscape:window-maximized="1"
     inkscape:current-layer="svg1" />
  <path
     fill-rule="evenodd"
     clip-rule="evenodd"
     d="M12 2.75C11.3423 2.75 10.6951 2.96164 9.08062 3.5143L8.5078 3.71037C6.99521 4.22814 5.8921 4.60605 5.11759 4.92069C4.731 5.07774 4.4509 5.20935 4.25429 5.32353C4.15722 5.3799 4.09034 5.42642 4.04567 5.46273C4.0078 5.49351 3.99336 5.51095 3.99129 5.51349C3.98936 5.51663 3.97693 5.5374 3.95943 5.58654C3.93944 5.64265 3.91729 5.72309 3.89571 5.83506C3.85204 6.06169 3.81894 6.37301 3.79608 6.79292C3.75028 7.63411 3.75 8.80833 3.75 10.4167V11.9914C3.75 17.1665 7.6199 19.7135 10.1988 20.84C10.5703 21.0023 10.7848 21.0941 11.0236 21.1552C11.2517 21.2136 11.53 21.25 12 21.25C12.47 21.25 12.7483 21.2136 12.9764 21.1552C13.2152 21.0941 13.4297 21.0023 13.8012 20.84C16.3801 19.7135 20.25 17.1665 20.25 11.9914V10.4167C20.25 8.80833 20.2497 7.63411 20.2039 6.79292C20.1811 6.37301 20.148 6.06169 20.1043 5.83506C20.0827 5.72309 20.0606 5.64265 20.0406 5.58654C20.0231 5.53737 20.0106 5.5166 20.0087 5.51348C20.0066 5.51092 19.9922 5.49349 19.9543 5.46273C19.9097 5.42642 19.8428 5.3799 19.7457 5.32353C19.5491 5.20935 19.269 5.07774 18.8824 4.92069C18.1079 4.60605 17.0048 4.22814 15.4922 3.71037L14.9194 3.5143C13.3049 2.96164 12.6577 2.75 12 2.75ZM8.72339 2.05112C10.1673 1.55658 11.0625 1.25 12 1.25C12.9375 1.25 13.8327 1.55658 15.2766 2.05112C15.319 2.06563 15.3618 2.0803 15.4052 2.09514L16.004 2.30013C17.4854 2.8072 18.6286 3.19852 19.447 3.53099C19.8592 3.69846 20.2136 3.86067 20.499 4.02641C20.7737 4.1859 21.0492 4.38484 21.2364 4.65154C21.4214 4.91516 21.5171 5.23924 21.5772 5.55122C21.6397 5.87556 21.6774 6.26464 21.7017 6.71136C21.75 7.5984 21.75 8.81361 21.75 10.3898V11.9914C21.75 18.0924 17.142 21.0175 14.4017 22.2146L14.3746 22.2264C14.0348 22.3749 13.7154 22.5144 13.3484 22.6084C12.9609 22.7076 12.5493 22.75 12 22.75C11.4507 22.75 11.0391 22.7076 10.6516 22.6084C10.2846 22.5144 9.96523 22.3749 9.62543 22.2264L9.59833 22.2146C6.85803 21.0175 2.25 18.0924 2.25 11.9914V10.3899C2.25 8.81365 2.25 7.59841 2.2983 6.71136C2.32262 6.26464 2.36031 5.87556 2.42281 5.55122C2.48293 5.23924 2.5786 4.91516 2.76363 4.65154C2.95082 4.38484 3.22634 4.1859 3.50098 4.02641C3.78637 3.86067 4.14078 3.69846 4.55303 3.53099C5.3714 3.19852 6.51462 2.8072 7.99595 2.30014L8.59483 2.09514C8.63817 2.0803 8.68101 2.06563 8.72339 2.05112Z"
     fill="#1C274C"
     id="path1"
     style="fill:#000000;fill-opacity:1;stroke:#350000;stroke-opacity:1" />
  <path
     style="fill:#191919;fill-opacity:1;stroke:#000000;stroke-width:3.91154"
     d="m 382.92367,707.25684 c -16.35795,-1.71805 -33.64709,-8.1133 -66.78644,-24.70429 -58.65039,-29.36293 -106.2963,-68.62258 -138.35719,-114.00466 -25.79416,-36.51154 -41.71945,-76.53916 -49.14675,-123.52849 -2.35337,-14.88878 -2.37187,-15.78967 -2.35906,-114.8771 0.0132,-102.34967 0.47228,-116.98062 4.25361,-135.57568 0.86813,-4.26908 2.23819,-8.78671 3.04459,-10.03917 4.946,-7.68197 40.09306,-22.38397 116.36289,-48.67454 116.7905,-40.258242 133.43944,-44.873607 156.43559,-43.36658 18.38639,1.204931 42.33649,8.43322 143.69377,43.36767 76.24515,26.27914 111.41658,40.99101 116.36289,48.67345 0.8064,1.25246 2.17646,5.77009 3.04459,10.03917 3.78707,18.62327 4.24477,33.20384 4.25578,135.57568 0.0107,99.31706 -0.002,99.95381 -2.37805,114.8771 -1.31384,8.25356 -3.4896,19.66365 -4.83501,25.35576 -22.11408,93.55904 -89.20122,168.56959 -195.38528,218.46148 -33.08523,15.54551 -41.74524,17.95308 -66.47242,18.48004 -9.67658,0.20622 -19.45666,0.17929 -21.73351,-0.0598 z"
     id="path104"
     transform="scale(0.03)" />
</svg>
